<?xml version="1.0" standalone="no"?>
<!DOCTYPE svg PUBLIC "-//W3C//DTD SVG 20010904//EN"
 "http://www.w3.org/TR/2001/REC-SVG-20010904/DTD/svg10.dtd">
<svg version="1.0" xmlns="http://www.w3.org/2000/svg"
 width="819.000000pt" height="819.000000pt" viewBox="0 0 819.000000 819.000000"
 preserveAspectRatio="xMidYMid meet">
<metadata>
Created by potrace 1.11, written by Peter Selinger 2001-2013
</metadata>
<g transform="translate(0.000000,819.000000) scale(0.100000,-0.100000)"
fill="#000000" stroke="none">
<path d="M3849 8036 c-2 -2 -44 -6 -94 -10 -49 -3 -101 -8 -115 -10 -14 -3
-47 -7 -75 -10 -87 -10 -130 -16 -145 -21 -8 -2 -33 -7 -55 -10 -22 -4 -56
-10 -75 -15 -19 -5 -53 -12 -75 -16 -59 -9 -354 -96 -480 -141 -675 -243
-1300 -694 -1757 -1268 -66 -83 -226 -319 -288 -425 -24 -41 -55 -95 -70 -120
-116 -199 -302 -660 -346 -855 -1 -5 -10 -39 -19 -75 -9 -36 -19 -76 -22 -90
-3 -14 -6 -29 -7 -35 -27 -119 -53 -270 -62 -365 -3 -35 -7 -67 -9 -70 -16
-26 -24 -534 -11 -690 12 -153 30 -304 41 -360 3 -14 8 -38 10 -55 5 -29 30
-157 40 -200 2 -11 15 -63 30 -115 14 -52 28 -104 30 -115 7 -34 81 -244 120
-346 46 -117 176 -386 242 -499 344 -594 826 -1082 1410 -1430 150 -90 325
-179 463 -237 109 -46 135 -56 136 -51 0 2 7 -2 15 -8 11 -10 266 -97 319
-110 8 -2 58 -15 110 -28 52 -14 106 -27 120 -29 14 -3 70 -14 125 -25 130
-26 157 -31 235 -38 36 -3 76 -7 90 -10 46 -8 264 -18 405 -18 136 0 402 11
414 18 3 2 40 7 80 10 41 4 77 9 80 10 4 2 30 6 58 10 65 8 302 59 403 87 41
11 89 24 105 28 193 52 548 201 775 327 216 119 500 316 650 450 19 17 62 55
95 84 213 187 493 516 649 760 26 41 56 86 65 100 53 77 178 313 242 455 53
119 161 416 185 510 2 6 18 71 38 145 31 124 78 377 90 492 3 26 9 80 13 120
16 150 8 664 -12 808 -2 14 -6 47 -9 74 -4 27 -8 59 -11 70 -2 12 -7 37 -10
56 -2 19 -7 46 -10 60 -3 14 -8 41 -11 60 -3 19 -13 62 -21 95 -8 33 -16 67
-18 75 -34 171 -160 523 -268 750 -57 119 -158 300 -239 428 -53 84 -182 267
-198 282 -3 3 -19 23 -35 45 -41 56 -225 265 -299 340 -523 533 -1275 934
-2026 1080 -140 27 -216 39 -325 50 -33 4 -76 9 -95 12 -42 6 -585 15 -591 9z"/>
</g>
</svg>
